HIERARCHY
ROOT Hips
{
 OFFSET 0.000000 0.000000 0.000000
 CHANNELS 6 Xposition Yposition Zposition Yrotation Xrotation Zrotation
 JOINT Chest
 {
  OFFSET 0.000000 9.910571 -0.011835
  CHANNELS 3 Yrotation Xrotation Zrotation
  JOINT Chest2
  {
   OFFSET 0.000000 10.789473 0.021497
   CHANNELS 3 Yrotation Xrotation Zrotation
   JOINT Chest3
   {
    OFFSET 0.000000 9.748205 0.000000
    CHANNELS 3 Yrotation Xrotation Zrotation
    JOINT Chest4
    {
     OFFSET 0.000000 9.748205 0.000000
     CHANNELS 3 Yrotation Xrotation Zrotation
     JOINT Neck
     {
      OFFSET 0.000000 13.998479 0.000000
      CHANNELS 3 Yrotation Xrotation Zrotation
      JOINT Head
      {
       OFFSET 0.000000 9.082285 0.051121
       CHANNELS 3 Yrotation Xrotation Zrotation
       End Site
       {
        OFFSET 0.000000 17.246134 0.026702
       }
      }
     }
     JOINT RightCollar
     {
      OFFSET -3.284495 7.824262 0.000000
      CHANNELS 3 Yrotation Xrotation Zrotation
      JOINT RightShoulder
      {
       OFFSET -15.534540 0.000000 0.000000
       CHANNELS 3 Yrotation Xrotation Zrotation
       JOINT RightElbow
       {
        OFFSET 0.000000 -28.251216 0.000000
        CHANNELS 3 Yrotation Xrotation Zrotation
        JOINT RightWrist
        {
         OFFSET 0.000000 -23.418114 0.012537
         CHANNELS 3 Yrotation Xrotation Zrotation
         End Site
         {
          OFFSET 0.000000 -17.723959 0.000000
         }
        }
       }
      }
     }
     JOINT LeftCollar
     {
      OFFSET 3.284495 7.824262 0.000000
      CHANNELS 3 Yrotation Xrotation Zrotation
      JOINT LeftShoulder
      {
       OFFSET 15.534540 0.000000 0.000000
       CHANNELS 3 Yrotation Xrotation Zrotation
       JOINT LeftElbow
       {
        OFFSET 0.000000 -28.251216 0.000000
        CHANNELS 3 Yrotation Xrotation Zrotation
        JOINT LeftWrist
        {
         OFFSET 0.000000 -23.418114 0.012537
         CHANNELS 3 Yrotation Xrotation Zrotation
         End Site
         {
          OFFSET 0.000000 -17.723959 0.000000
         }
        }
       }
      }
     }
    }
   }
  }
 }
 JOINT RightHip
 {
  OFFSET -8.142657 0.057990 0.005917
  CHANNELS 3 Yrotation Xrotation Zrotation
  JOINT RightKnee
  {
   OFFSET 0.000000 -49.716894 0.008478
   CHANNELS 3 Yrotation Xrotation Zrotation
   JOINT RightAnkle
   {
    OFFSET 0.000000 -43.994153 0.004166
    CHANNELS 3 Yrotation Xrotation Zrotation
    JOINT RightToe
    {
     OFFSET 0.000000 -7.619154 17.822051
     CHANNELS 3 Yrotation Xrotation Zrotation
     End Site
     {
      OFFSET 0.000000 -1.595627 7.159905
     }
    }
   }
  }
 }
 JOINT LeftHip
 {
  OFFSET 8.142657 0.057990 0.005917
  CHANNELS 3 Yrotation Xrotation Zrotation
  JOINT LeftKnee
  {
   OFFSET 0.000000 -49.716894 0.008478
   CHANNELS 3 Yrotation Xrotation Zrotation
   JOINT LeftAnkle
   {
    OFFSET 0.000000 -43.994153 0.004166
    CHANNELS 3 Yrotation Xrotation Zrotation
    JOINT LeftToe
    {
     OFFSET 0.000000 -7.619154 17.822051
     CHANNELS 3 Yrotation Xrotation Zrotation
     End Site
     {
      OFFSET 0.000000 -1.595627 7.159905
     }
    }
   }
  }
 }
}
MOTION
Frames: 9
Frame Time: 0.008333
245.582522 56.605300 264.273374 -52.751347 -55.602564 1.498916 -1.537607 20.606300 -1.671042 -0.560257 9.156042 -0.734812 -0.560257 9.156042 -0.734812 -0.408201 6.867721 -0.541473 -5.941937 15.882928 -2.986701 -9.977507 -6.693186 -3.394141 -0.797926 10.486880 12.677018 22.640452 -18.634793 -24.036834 -1.764927 -43.494416 33.179218 2.588069 -8.870645 -9.686623 -1.531408 12.310139 -10.064190 -8.438032 -19.910937 18.404497 25.237158 -48.196820 -32.385731 -4.512940 8.227994 -11.004847 -7.568722 -31.360806 -9.271437 -91.990297 73.885162 -107.409873 -3.356990 -4.398465 7.275794 0.047147 0.232066 0.068211 4.164510 -32.236959 11.827450 78.635196 85.320235 81.469011 -0.563157 0.885578 -1.072257 -0.049969 -0.161605 0.001487
245.579292 56.606739 264.270843 -52.767775 -55.598562 1.527640 -1.533700 20.623793 -1.655353 -0.559206 9.162871 -0.728592 -0.559206 9.162871 -0.728592 -0.407499 6.872836 -0.536825 -5.926284 15.860579 -2.958649 -9.959100 -6.733456 -3.346365 -0.838966 10.447499 12.683321 22.680009 -18.613836 -24.053598 -1.809923 -43.499049 33.189833 2.606969 -8.841124 -9.658699 -1.571628 12.286471 -10.073646 -8.441773 -19.918672 18.405475 25.219639 -48.192915 -32.385012 -4.494246 8.183008 -10.977388 -7.547966 -31.365466 -9.280818 -91.998398 73.867455 -107.420680 -3.347297 -4.414043 7.266938 0.045976 0.235807 0.069893 4.192055 -32.236807 11.823336 78.541692 85.326644 81.371012 -0.583723 0.889354 -1.068781 -0.045747 -0.162422 0.002902
245.576497 56.608013 264.268411 -52.781751 -55.596401 1.556877 -1.537618 20.636591 -1.645308 -0.560692 9.169901 -0.724439 -0.560692 9.169901 -0.724439 -0.408664 6.878106 -0.533686 -5.907180 15.839345 -2.931313 -9.933985 -6.771797 -3.301237 -0.869479 10.410219 12.687737 22.718914 -18.591226 -24.064099 -1.858948 -43.504570 33.208960 2.628261 -8.820884 -9.644688 -1.586583 12.267620 -10.075310 -8.442198 -19.928341 18.397338 25.194482 -48.170009 -32.340371 -4.503869 8.114338 -11.004167 -7.530311 -31.369194 -9.291085 -92.013596 73.863946 -107.443420 -3.351446 -4.424326 7.263596 0.042923 0.235636 0.068257 4.220210 -32.239244 11.812582 78.494127 85.329618 81.321906 -0.601869 0.902218 -1.065584 -0.043545 -0.170538 0.003390
245.572334 56.608095 264.266633 -52.807087 -55.591665 1.596303 -1.541791 20.653469 -1.636285 -0.561265 9.176937 -0.719051 -0.561265 9.176937 -0.719051 -0.409165 6.883379 -0.529637 -5.885952 15.816993 -2.903214 -9.905227 -6.812230 -3.255398 -0.902563 10.365001 12.683741 22.756669 -18.563007 -24.072234 -1.900204 -43.520188 33.217722 2.644059 -8.792878 -9.631698 -1.607018 12.242539 -10.080362 -8.431421 -19.929316 18.384084 25.170930 -48.180062 -32.341793 -4.480435 8.070566 -10.979119 -7.502598 -31.376581 -9.305163 -92.048888 73.856495 -107.482946 -3.356203 -4.441038 7.264359 0.034600 0.237919 0.063147 4.252470 -32.241710 11.799306 78.454134 85.340189 81.281553 -0.608166 0.907444 -1.066862 -0.041463 -0.174117 0.004156
245.569041 56.606637 264.266500 -52.839832 -55.582205 1.640799 -1.545706 20.664549 -1.630160 -0.562625 9.183053 -0.713594 -0.562625 9.183053 -0.713594 -0.410257 6.887962 -0.525525 -5.866760 15.794715 -2.876510 -9.879760 -6.852554 -3.211416 -0.936171 10.317063 12.679621 22.798074 -18.533473 -24.084326 -1.945186 -43.525405 33.243230 2.666157 -8.772341 -9.619410 -1.620124 12.217444 -10.092047 -8.421124 -19.926257 18.369236 25.134914 -48.171056 -32.285448 -4.480693 8.005030 -11.012959 -7.471546 -31.392851 -9.323037 -92.083290 73.849480 -107.519048 -3.351159 -4.451220 7.259734 0.026059 0.235195 0.058637 4.281526 -32.247669 11.790129 78.463411 85.348697 81.280034 -0.610971 0.906215 -1.061098 -0.043932 -0.174668 0.002362
245.565418 56.605369 264.265012 -52.879542 -55.572431 1.686416 -1.541720 20.675067 -1.615943 -0.561639 9.188676 -0.708392 -0.561639 9.188676 -0.708392 -0.409589 6.892174 -0.521640 -5.850762 15.781131 -2.848578 -9.860512 -6.876598 -3.164480 -0.979568 10.279233 12.675559 22.849789 -18.501475 -24.093021 -1.984908 -43.541446 33.253056 2.677258 -8.741294 -9.608730 -1.650153 12.193733 -10.101402 -8.397368 -19.922510 18.351634 25.098063 -48.181252 -32.279233 -4.455768 7.956517 -10.980601 -7.444148 -31.404058 -9.316538 -92.103544 73.842984 -107.548137 -3.378574 -4.464539 7.250430 0.038296 0.239238 0.064613 4.315082 -32.254126 11.776252 78.443061 85.353110 81.259396 -0.608927 0.907206 -1.058252 -0.051931 -0.174993 -0.003319
245.561674 56.603979 264.263443 -52.915653 -55.566109 1.726169 -1.544404 20.683779 -1.603889 -0.564199 9.192861 -0.705013 -0.564199 9.192861 -0.705013 -0.411551 6.895313 -0.519068 -5.830010 15.766505 -2.821791 -9.832012 -6.902777 -3.121344 -1.005338 10.242929 12.670274 22.886572 -18.478578 -24.096232 -2.012976 -43.551528 33.269547 2.686353 -8.711082 -9.604628 -1.653697 12.172292 -10.105314 -8.383466 -19.909185 18.331929 25.070730 -48.168263 -32.233967 -4.460150 7.891471 -11.008214 -7.416618 -31.411905 -9.318204 -92.130436 73.842835 -107.573873 -3.399514 -4.479489 7.239780 0.042382 0.242662 0.064990 4.341856 -32.258442 11.769365 78.474012 85.352397 81.290002 -0.618242 0.907043 -1.063656 -0.052391 -0.175955 -0.003033
245.558644 56.600250 264.262047 -52.960245 -55.551269 1.776300 -1.543354 20.689466 -1.594548 -0.565238 9.196946 -0.701587 -0.565238 9.196946 -0.701587 -0.412374 6.898374 -0.516483 -5.812251 15.754749 -2.789127 -9.811193 -6.923218 -3.066339 -1.032503 10.204555 12.667217 22.923493 -18.453250 -24.103725 -2.037247 -43.562885 33.281078 2.688046 -8.680677 -9.592821 -1.661297 12.149883 -10.106469 -8.362368 -19.901918 18.313934 25.038309 -48.174347 -32.235930 -4.443940 7.855695 -10.988939 -7.389062 -31.434188 -9.318644 -92.172474 73.848806 -107.623864 -3.425561 -4.491392 7.230811 0.044694 0.242428 0.065812 4.376598 -32.273664 11.757066 78.530234 85.350187 81.346781 -0.630800 0.909765 -1.067362 -0.054334 -0.178629 -0.004193
245.552987 56.597474 264.257879 -52.992154 -55.543780 1.791226 -1.540455 20.699566 -1.561892 -0.567353 9.202012 -0.698218 -0.567353 9.202012 -0.698218 -0.414001 6.902173 -0.513924 -5.794298 15.741352 -2.756443 -9.790065 -6.946707 -3.011272 -1.059504 10.164902 12.666680 22.957593 -18.426895 -24.112410 -2.058839 -43.574808 33.292618 2.687271 -8.656902 -9.578778 -1.665167 12.115947 -10.110612 -8.344919 -19.882651 18.300848 25.012835 -48.156203 -32.195049 -4.446473 7.786276 -11.018221 -7.385619 -31.446837 -9.291903 -92.201791 73.847401 -107.664093 -3.437967 -4.517418 7.229914 0.037773 0.255420 0.059508 4.385629 -32.278426 11.778190 78.541757 85.351926 81.354568 -0.626815 0.917949 -1.065846 -0.065761 -0.188448 -0.009389
